<?xml version="1.0" encoding="UTF-8" standalone="no"?>
<svg
   xmlns:dc="http://purl.org/dc/elements/1.1/"
   xmlns:cc="http://creativecommons.org/ns#"
   xmlns:rdf="http://www.w3.org/1999/02/22-rdf-syntax-ns#"
   xmlns:svg="http://www.w3.org/2000/svg"
   xmlns="http://www.w3.org/2000/svg"
   xmlns:xlink="http://www.w3.org/1999/xlink"
   xmlns:sodipodi="http://sodipodi.sourceforge.net/DTD/sodipodi-0.dtd"
   xmlns:inkscape="http://www.inkscape.org/namespaces/inkscape"
   width="210mm"
   height="297mm"
   viewBox="0 0 210 297"
   version="1.1"
   id="svg8"
   inkscape:version="1.0.1 (3bc2e813f5, 2020-09-07)"
   sodipodi:docname="background.svg">
  <defs
     id="defs2">
    <linearGradient
       inkscape:collect="always"
       id="linearGradient9516">
      <stop
         style="stop-color:#abb7b7;stop-opacity:1;"
         offset="0"
         id="stop9512" />
      <stop
         style="stop-color:#292929;stop-opacity:1"
         offset="1"
         id="stop9514" />
    </linearGradient>
    <linearGradient
       inkscape:collect="always"
       id="linearGradient7930">
      <stop
         style="stop-color:#abb7b7;stop-opacity:1;"
         offset="0"
         id="stop7926" />
      <stop
         style="stop-color:#abb7b7;stop-opacity:0;"
         offset="1"
         id="stop7928" />
    </linearGradient>
    <clipPath
       clipPathUnits="userSpaceOnUse"
       id="clipPath7908">
      <ellipse
         style="fill:#191d1d;fill-opacity:1;stroke:#000a0a;stroke-width:0.264583;stroke-linecap:round;stroke-linejoin:round;stroke-opacity:1"
         id="ellipse7910"
         cx="105.19006"
         cy="122.65128"
         rx="97.814247"
         ry="98.853973" />
    </clipPath>
    <radialGradient
       inkscape:collect="always"
       xlink:href="#linearGradient7930"
       id="radialGradient7932"
       cx="105.19006"
       cy="122.65128"
       fx="105.19006"
       fy="122.65128"
       r="97.814247"
       gradientTransform="matrix(1,0,0,1.0106296,0,-1.303734)"
       gradientUnits="userSpaceOnUse" />
    <filter
       inkscape:collect="always"
       style="color-interpolation-filters:sRGB"
       id="filter8130"
       x="-0.0074925267"
       width="1.0149851"
       y="-0.0064829397"
       height="1.0129659">
      <feGaussianBlur
         inkscape:collect="always"
         stdDeviation="0.6382803"
         id="feGaussianBlur8132" />
    </filter>
    <linearGradient
       inkscape:collect="always"
       xlink:href="#linearGradient9516"
       id="linearGradient9510"
       x1="106.39824"
       y1="20.197723"
       x2="107.44108"
       y2="95.217827"
       gradientUnits="userSpaceOnUse" />
    <linearGradient
       inkscape:collect="always"
       xlink:href="#linearGradient9516"
       id="linearGradient9530"
       gradientUnits="userSpaceOnUse"
       x1="105.66587"
       y1="178.75487"
       x2="107.44108"
       y2="95.217827"
       gradientTransform="matrix(0.97437083,0,0,0.97437083,2.7115025,2.8018872)" />
    <linearGradient
       inkscape:collect="always"
       xlink:href="#linearGradient9516"
       id="linearGradient9576"
       x1="109.96686"
       y1="105.71616"
       x2="109.978"
       y2="106.48125"
       gradientUnits="userSpaceOnUse"
       gradientTransform="matrix(1.0992135,0,0,1.0992135,-10.910049,-10.560163)" />
    <linearGradient
       inkscape:collect="always"
       xlink:href="#linearGradient9516"
       id="linearGradient9580"
       gradientUnits="userSpaceOnUse"
       x1="109.95306"
       y1="107.08263"
       x2="109.978"
       y2="106.48125"
       gradientTransform="matrix(1.026508,0,0,1.026508,-2.9149687,-2.8214856)" />
  </defs>
  <sodipodi:namedview
     id="base"
     pagecolor="#000000"
     bordercolor="#666666"
     borderopacity="1.0"
     inkscape:pageopacity="0"
     inkscape:pageshadow="2"
     inkscape:zoom="13.204462"
     inkscape:cx="411.81479"
     inkscape:cy="401.28692"
     inkscape:document-units="mm"
     inkscape:current-layer="layer3"
     inkscape:document-rotation="0"
     showgrid="false"
     inkscape:window-width="1920"
     inkscape:window-height="1027"
     inkscape:window-x="3632"
     inkscape:window-y="550"
     inkscape:window-maximized="1" />
  <metadata
     id="metadata5">
    <rdf:RDF>
      <cc:Work
         rdf:about="">
        <dc:format>image/svg+xml</dc:format>
        <dc:type
           rdf:resource="http://purl.org/dc/dcmitype/StillImage" />
        <dc:title></dc:title>
      </cc:Work>
    </rdf:RDF>
  </metadata>
  <g
     inkscape:label="Layer 1"
     inkscape:groupmode="layer"
     id="layer1"
     style="display:none;filter:url(#filter8130)">
    <path
       id="use6475-6-6"
       style="fill:url(#radialGradient7932);fill-opacity:1;stroke:#000a0a;stroke-width:0.264583;stroke-linecap:round;stroke-linejoin:round;stroke-opacity:1"
       inkscape:transform-center-x="1.2188115e-06"
       inkscape:transform-center-y="-1.2316636e-06"
       d="m 204.39583,125.06117 h -6.04187 l -3.02094,-5.23241 3.02094,-5.23242 h 6.04187 l 3.02094,5.23242 z m 0,-11.58777 h -6.04187 l -3.02094,-5.23241 3.02094,-5.23241 h 6.04187 l 3.02094,5.23241 z m 0,-11.58774 h -6.04187 l -3.02094,-5.232426 3.02094,-5.232411 h 6.04187 l 3.02094,5.232411 z m 0,-11.587776 h -6.04187 l -3.02094,-5.232411 3.02094,-5.232418 h 6.04187 l 3.02094,5.232418 z m 0,-11.587771 h -6.04187 l -3.02094,-5.232408 3.02094,-5.232426 h 6.04187 l 3.02094,5.232426 z m 0,-11.587763 h -6.04187 l -3.02094,-5.232419 3.02094,-5.232411 h 6.04187 l 3.02094,5.232411 z m 0,-11.587759 h -6.04187 l -3.02094,-5.23242 3.02094,-5.232408 h 6.04187 l 3.02094,5.232408 z m 0,-11.587767 h -6.04187 l -3.02094,-5.232411 3.02094,-5.232413 h 6.04187 l 3.02094,5.232413 z m 0,-11.587766 h -6.04187 l -3.02094,-5.232413 3.02094,-5.232413 h 6.04187 l 3.02094,5.232414 z m 0,-11.587759 -6.04187,-10e-7 -3.02094,-5.232414 3.02094,-5.232414 h 6.04187 l 3.02094,5.232414 z M 184.14459,125.06117 h -6.04187 l -3.02093,-5.23241 3.02093,-5.23242 h 6.04187 l 3.02094,5.23242 z m 0,-11.58777 h -6.04187 l -3.02093,-5.23241 3.02093,-5.23241 h 6.04187 l 3.02094,5.23241 z m 0,-11.58774 h -6.04187 l -3.02093,-5.232426 3.02093,-5.232411 h 6.04187 l 3.02094,5.232411 z m 0,-11.587776 h -6.04187 l -3.02093,-5.232411 3.02093,-5.232418 h 6.04187 l 3.02094,5.232418 z m 0,-11.587771 h -6.04187 l -3.02093,-5.232408 3.02093,-5.232426 h 6.04187 l 3.02094,5.232426 z m 0,-11.587763 h -6.04187 l -3.02093,-5.232419 3.02093,-5.232411 h 6.04187 l 3.02094,5.232411 z m 0,-11.587759 h -6.04187 l -3.02093,-5.23242 3.02093,-5.232408 h 6.04187 l 3.02094,5.232408 z m 0,-11.587767 h -6.04187 l -3.02093,-5.232411 3.02093,-5.232413 h 6.04187 l 3.02094,5.232413 z m 0,-11.587766 h -6.04187 l -3.02093,-5.232413 3.02093,-5.232413 h 6.04187 l 3.02094,5.232414 z m 0,-11.587759 -6.04187,-10e-7 -3.02093,-5.232414 3.02093,-5.232414 h 6.04187 l 3.02094,5.232414 z M 163.89334,125.06117 h -6.04187 l -3.02093,-5.23241 3.02093,-5.23242 h 6.04187 l 3.02094,5.23242 z m 0,-11.58777 h -6.04187 l -3.02093,-5.23241 3.02093,-5.23241 h 6.04187 l 3.02094,5.23241 z m 0,-11.58774 h -6.04187 l -3.02093,-5.232426 3.02093,-5.232411 h 6.04187 l 3.02094,5.232411 z m 0,-11.587776 h -6.04187 l -3.02093,-5.232411 3.02093,-5.232418 h 6.04187 l 3.02094,5.232418 z m 0,-11.587771 h -6.04187 l -3.02093,-5.232408 3.02093,-5.232426 h 6.04187 l 3.02094,5.232426 z m 0,-11.587763 h -6.04187 l -3.02093,-5.232419 3.02093,-5.232411 h 6.04187 l 3.02094,5.232411 z m 0,-11.587759 h -6.04187 l -3.02093,-5.23242 3.02093,-5.232408 h 6.04187 l 3.02094,5.232408 z m 0,-11.587767 h -6.04187 l -3.02093,-5.232411 3.02093,-5.232413 h 6.04187 l 3.02094,5.232413 z m 0,-11.587766 h -6.04187 l -3.02093,-5.232413 3.02093,-5.232413 h 6.04187 l 3.02094,5.232414 z m 0,-11.587759 -6.04187,-10e-7 -3.02093,-5.232414 3.02093,-5.232414 h 6.04187 l 3.02094,5.232414 z M 143.64211,125.06117 h -6.04187 l -3.02094,-5.23241 3.02094,-5.23242 h 6.04187 l 3.02093,5.23242 z m 0,-11.58777 h -6.04187 l -3.02094,-5.23241 3.02094,-5.23241 h 6.04187 l 3.02093,5.23241 z m 0,-11.58774 h -6.04187 l -3.02094,-5.232426 3.02094,-5.232411 h 6.04187 l 3.02093,5.232411 z m 0,-11.587776 h -6.04187 l -3.02094,-5.232411 3.02094,-5.232418 h 6.04187 l 3.02093,5.232418 z m 0,-11.587771 h -6.04187 l -3.02094,-5.232408 3.02094,-5.232426 h 6.04187 l 3.02093,5.232426 z m 0,-11.587763 h -6.04187 l -3.02094,-5.232419 3.02094,-5.232411 h 6.04187 l 3.02093,5.232411 z m 0,-11.587759 h -6.04187 l -3.02094,-5.23242 3.02094,-5.232408 h 6.04187 l 3.02093,5.232408 z m 0,-11.587767 h -6.04187 L 134.5793,38.714413 137.60024,33.482 h 6.04187 l 3.02093,5.232413 z m 0,-11.587766 h -6.04187 l -3.02094,-5.232413 3.02094,-5.232413 h 6.04187 l 3.02093,5.232414 z m 0,-11.587759 -6.04187,-10e-7 -3.02094,-5.232414 3.02094,-5.232414 h 6.04187 l 3.02093,5.232414 z M 123.39086,125.06117 h -6.04188 l -3.02093,-5.23241 3.02093,-5.23242 h 6.04188 l 3.02093,5.23242 z m 0,-11.58777 h -6.04188 l -3.02093,-5.23241 3.02093,-5.23241 h 6.04188 l 3.02093,5.23241 z m 0,-11.58774 h -6.04188 l -3.02093,-5.232426 3.02093,-5.232411 h 6.04188 l 3.02093,5.232411 z m 0,-11.587776 h -6.04188 l -3.02093,-5.232411 3.02093,-5.232418 h 6.04188 l 3.02093,5.232418 z m 0,-11.587771 h -6.04188 l -3.02093,-5.232408 3.02093,-5.232426 h 6.04188 l 3.02093,5.232426 z m 0,-11.587763 h -6.04188 l -3.02093,-5.232419 3.02093,-5.232411 h 6.04188 l 3.02093,5.232411 z m 0,-11.587759 h -6.04188 l -3.02093,-5.23242 3.02093,-5.232408 h 6.04188 l 3.02093,5.232408 z m 0,-11.587767 h -6.04188 l -3.02093,-5.232411 3.02093,-5.232413 h 6.04188 l 3.02093,5.232413 z m 0,-11.587766 h -6.04188 l -3.02093,-5.232413 3.02093,-5.232413 h 6.04188 l 3.02093,5.232414 z m 0,-11.587759 -6.04188,-10e-7 -3.02093,-5.232414 3.02093,-5.232414 h 6.04188 l 3.02093,5.232414 z M 103.13961,125.06117 h -6.041865 l -3.02093,-5.23241 3.02093,-5.23242 h 6.041865 l 3.02094,5.23242 z m 0,-11.58777 h -6.041865 l -3.02093,-5.23241 3.02093,-5.23241 h 6.041865 l 3.02094,5.23241 z m 0,-11.58774 h -6.041865 l -3.02093,-5.232426 3.02093,-5.232411 h 6.041865 l 3.02094,5.232411 z m 0,-11.587776 h -6.041865 l -3.02093,-5.232411 3.02093,-5.232418 h 6.041865 l 3.02094,5.232418 z m 0,-11.587771 h -6.041865 l -3.02093,-5.232408 3.02093,-5.232426 h 6.041865 l 3.02094,5.232426 z m 0,-11.587763 h -6.041865 l -3.02093,-5.232419 3.02093,-5.232411 h 6.041865 l 3.02094,5.232411 z m 0,-11.587759 h -6.041865 l -3.02093,-5.23242 3.02093,-5.232408 h 6.041865 l 3.02094,5.232408 z m 0,-11.587767 h -6.041865 l -3.02093,-5.232411 3.02093,-5.232413 h 6.041865 l 3.02094,5.232413 z m 0,-11.587766 h -6.041865 l -3.02093,-5.232413 3.02093,-5.232413 h 6.041865 l 3.02094,5.232414 z m 0,-11.587759 -6.041865,-10e-7 -3.02093,-5.232414 3.02093,-5.232414 h 6.041865 l 3.02094,5.232414 z M 82.888359,125.06117 h -6.041865 l -3.020933,-5.23241 3.020936,-5.23242 h 6.041862 l 3.020956,5.23242 z m 0,-11.58777 h -6.041865 l -3.020933,-5.23241 3.020936,-5.23241 h 6.041862 l 3.020956,5.23241 z m 0,-11.58774 h -6.041865 l -3.020933,-5.232426 3.020936,-5.232411 h 6.041862 l 3.020956,5.232411 z m 0,-11.587776 h -6.041865 l -3.020933,-5.232411 3.020936,-5.232418 h 6.041862 l 3.020956,5.232418 z m 0,-11.587771 h -6.041865 l -3.020933,-5.232408 3.020936,-5.232426 h 6.041862 l 3.020956,5.232426 z m 0,-11.587763 h -6.041865 l -3.020933,-5.232419 3.020936,-5.232411 h 6.041862 l 3.020956,5.232411 z m 0,-11.587759 h -6.041865 l -3.020933,-5.23242 3.020936,-5.232408 h 6.041862 l 3.020956,5.232408 z m 0,-11.587767 H 76.846494 L 73.825561,38.714413 76.846497,33.482 h 6.041862 l 3.020956,5.232413 z m 0,-11.587766 h -6.041865 l -3.020933,-5.232413 3.020936,-5.232413 h 6.041862 l 3.020956,5.232414 z m 0,-11.587759 -6.041865,-10e-7 -3.020933,-5.232414 3.020936,-5.232414 h 6.041862 l 3.020956,5.232414 z M 62.637123,125.06117 h -6.041872 l -3.020935,-5.23241 3.020935,-5.23242 h 6.041872 l 3.020936,5.23242 z m 0,-11.58777 h -6.041872 l -3.020935,-5.23241 3.020935,-5.23241 h 6.041872 l 3.020936,5.23241 z m 0,-11.58774 h -6.041872 l -3.020935,-5.232426 3.020935,-5.232411 h 6.041872 l 3.020936,5.232411 z m 0,-11.587776 h -6.041872 l -3.020935,-5.232411 3.020935,-5.232418 h 6.041872 l 3.020936,5.232418 z m 0,-11.587771 h -6.041872 l -3.020935,-5.232408 3.020935,-5.232426 h 6.041872 l 3.020936,5.232426 z m 0,-11.587763 h -6.041872 l -3.020935,-5.232419 3.020935,-5.232411 h 6.041872 l 3.020936,5.232411 z m 0,-11.587759 h -6.041872 l -3.020935,-5.23242 3.020935,-5.232408 h 6.041872 l 3.020936,5.232408 z m 0,-11.587767 H 56.595251 L 53.574316,38.714413 56.595251,33.482 h 6.041872 l 3.020936,5.232413 z m 0,-11.587766 h -6.041872 l -3.020935,-5.232413 3.020935,-5.232413 h 6.041872 l 3.020936,5.232414 z m 0,-11.587759 -6.041872,-10e-7 -3.020935,-5.232414 3.020935,-5.232414 h 6.041872 l 3.020936,5.232414 z M 42.385875,125.06117 h -6.041872 l -3.020935,-5.23241 3.020938,-5.23242 h 6.041869 l 3.020936,5.23242 z m 0,-11.58777 h -6.041872 l -3.020935,-5.23241 3.020938,-5.23241 h 6.041869 l 3.020936,5.23241 z m 0,-11.58774 h -6.041872 l -3.020935,-5.232426 3.020938,-5.232411 h 6.041869 l 3.020936,5.232411 z m 0,-11.587776 h -6.041872 l -3.020935,-5.232411 3.020938,-5.232418 h 6.041869 l 3.020936,5.232418 z m 0,-11.587771 h -6.041872 l -3.020935,-5.232408 3.020938,-5.232426 h 6.041869 l 3.020936,5.232426 z m 0,-11.587763 h -6.041872 l -3.020935,-5.232419 3.020938,-5.232411 h 6.041869 l 3.020936,5.232411 z m 0,-11.587759 h -6.041872 l -3.020935,-5.23242 3.020938,-5.232408 h 6.041869 l 3.020936,5.232408 z m 0,-11.587767 H 36.344003 L 33.323068,38.714413 36.344006,33.482 h 6.041869 l 3.020936,5.232413 z m 0,-11.587766 h -6.041872 l -3.020935,-5.232413 3.020938,-5.232413 h 6.041869 l 3.020936,5.232414 z m 0,-11.587759 -6.041872,-10e-7 -3.020935,-5.232414 3.020938,-5.232414 h 6.041869 l 3.020936,5.232414 z M 22.134628,125.06117 h -6.041871 l -3.020935,-5.23241 3.020935,-5.23242 h 6.041871 l 3.020936,5.23242 z m 0,-11.58777 h -6.041871 l -3.020935,-5.23241 3.020935,-5.23241 h 6.041871 l 3.020936,5.23241 z m 0,-11.58774 h -6.041871 l -3.020935,-5.232426 3.020935,-5.232411 h 6.041871 l 3.020936,5.232411 z m 0,-11.587776 h -6.041871 l -3.020935,-5.232411 3.020935,-5.232418 h 6.041871 l 3.020936,5.232418 z m 0,-11.587771 h -6.041871 l -3.020935,-5.232408 3.020935,-5.232426 h 6.041871 l 3.020936,5.232426 z m 0,-11.587763 h -6.041871 l -3.020935,-5.232419 3.020935,-5.232411 h 6.041871 l 3.020936,5.232411 z m 0,-11.587759 h -6.041871 l -3.020935,-5.23242 3.020935,-5.232408 h 6.041871 l 3.020936,5.232408 z m 0,-11.587767 H 16.092757 L 13.071822,38.714413 16.092757,33.482 h 6.041871 l 3.020936,5.232413 z m 0,-11.587766 h -6.041871 l -3.020935,-5.232413 3.020935,-5.232413 h 6.041871 l 3.020936,5.232414 z m 0,-11.587759 -6.041871,-10e-7 -3.020935,-5.232414 3.020935,-5.232414 h 6.041871 l 3.020936,5.232414 z m 0,0 -6.041871,-10e-7 -3.020935,-5.232414 3.020935,-5.232414 h 6.041871 l 3.020936,5.232414 z M 194.36755,119.25951 h -6.04187 l -3.02094,-5.23241 3.02094,-5.23242 h 6.04187 l 3.02094,5.23242 z m 0,-11.58777 h -6.04187 l -3.02094,-5.2324 3.02094,-5.232426 h 6.04187 l 3.02094,5.232426 z m 0,-11.587747 h -6.04187 l -3.02094,-5.232418 3.02094,-5.232411 h 6.04187 l 3.02094,5.232411 z m 0,-11.587768 h -6.04187 l -3.02094,-5.232411 3.02094,-5.232421 h 6.04187 l 3.02094,5.232421 z m 0,-11.587771 h -6.04187 l -3.02094,-5.23242 3.02094,-5.232423 h 6.04187 l 3.02094,5.232423 z m 0,-11.587764 h -6.04187 l -3.02094,-5.232421 3.02094,-5.232407 h 6.04187 l 3.02094,5.232407 z m 0,-11.587758 h -6.04187 l -3.02094,-5.232407 3.02094,-5.232413 h 6.04187 l 3.02094,5.232413 z m 0,-11.587759 h -6.04187 l -3.02094,-5.232416 3.02094,-5.232413 h 6.04187 l 3.02094,5.232413 z m 0,-11.58777 h -6.04187 l -3.02094,-5.232414 3.02094,-5.232413 h 6.04187 l 3.02094,5.232414 z m 0,-11.58776 -6.04187,-10e-7 -3.02094,-5.2324146 3.02094,-5.232413 h 6.04187 l 3.02094,5.232414 z M 174.11631,119.25951 h -6.04187 l -3.02093,-5.23241 3.02093,-5.23242 h 6.04187 l 3.02094,5.23242 z m 0,-11.58777 h -6.04187 l -3.02093,-5.2324 3.02093,-5.232426 h 6.04187 l 3.02094,5.232426 z m 0,-11.587747 h -6.04187 l -3.02093,-5.232418 3.02093,-5.232411 h 6.04187 l 3.02094,5.232411 z m 0,-11.587768 h -6.04187 l -3.02093,-5.232411 3.02093,-5.232421 h 6.04187 l 3.02094,5.232421 z m 0,-11.587771 h -6.04187 l -3.02093,-5.23242 3.02093,-5.232423 h 6.04187 l 3.02094,5.232423 z m 0,-11.587764 h -6.04187 l -3.02093,-5.232421 3.02093,-5.232407 h 6.04187 l 3.02094,5.232407 z m 0,-11.587758 h -6.04187 l -3.02093,-5.232407 3.02093,-5.232413 h 6.04187 l 3.02094,5.232413 z m 0,-11.587759 h -6.04187 l -3.02093,-5.232416 3.02093,-5.232413 h 6.04187 l 3.02094,5.232413 z m 0,-11.58777 h -6.04187 l -3.02093,-5.232414 3.02093,-5.232413 h 6.04187 l 3.02094,5.232414 z m 0,-11.58776 -6.04187,-10e-7 -3.02093,-5.2324146 3.02093,-5.232413 h 6.04187 l 3.02094,5.232414 z M 153.86506,119.25951 h -6.04187 l -3.02093,-5.23241 3.02093,-5.23242 h 6.04187 l 3.02094,5.23242 z m 0,-11.58777 h -6.04187 l -3.02093,-5.2324 3.02093,-5.232426 h 6.04187 l 3.02094,5.232426 z m 0,-11.587747 h -6.04187 l -3.02093,-5.232418 3.02093,-5.232411 h 6.04187 l 3.02094,5.232411 z m 0,-11.587768 h -6.04187 l -3.02093,-5.232411 3.02093,-5.232421 h 6.04187 l 3.02094,5.232421 z m 0,-11.587771 h -6.04187 l -3.02093,-5.23242 3.02093,-5.232423 h 6.04187 l 3.02094,5.232423 z m 0,-11.587764 h -6.04187 l -3.02093,-5.232421 3.02093,-5.232407 h 6.04187 l 3.02094,5.232407 z m 0,-11.587758 h -6.04187 l -3.02093,-5.232407 3.02093,-5.232413 h 6.04187 l 3.02094,5.232413 z m 0,-11.587759 h -6.04187 l -3.02093,-5.232416 3.02093,-5.232413 h 6.04187 l 3.02094,5.232413 z m 0,-11.58777 h -6.04187 l -3.02093,-5.232414 3.02093,-5.232413 h 6.04187 l 3.02094,5.232414 z m 0,-11.58776 -6.04187,-10e-7 -3.02093,-5.2324146 3.02093,-5.232413 h 6.04187 l 3.02094,5.232414 z M 133.61383,119.25951 h -6.04187 l -3.02094,-5.23241 3.02094,-5.23242 h 6.04187 l 3.02093,5.23242 z m 0,-11.58777 h -6.04187 l -3.02094,-5.2324 3.02094,-5.232426 h 6.04187 l 3.02093,5.232426 z m 0,-11.587747 h -6.04187 l -3.02094,-5.232418 3.02094,-5.232411 h 6.04187 l 3.02093,5.232411 z m 0,-11.587768 h -6.04187 l -3.02094,-5.232411 3.02094,-5.232421 h 6.04187 l 3.02093,5.232421 z m 0,-11.587771 h -6.04187 l -3.02094,-5.23242 3.02094,-5.232423 h 6.04187 l 3.02093,5.232423 z m 0,-11.587764 h -6.04187 l -3.02094,-5.232421 3.02094,-5.232407 h 6.04187 l 3.02093,5.232407 z m 0,-11.587758 h -6.04187 l -3.02094,-5.232407 3.02094,-5.232413 h 6.04187 l 3.02093,5.232413 z m 0,-11.587759 h -6.04187 l -3.02094,-5.232416 3.02094,-5.232413 h 6.04187 l 3.02093,5.232413 z m 0,-11.58777 h -6.04187 l -3.02094,-5.232414 3.02094,-5.232413 h 6.04187 l 3.02093,5.232414 z m 0,-11.58776 -6.04187,-10e-7 -3.02094,-5.2324146 3.02094,-5.232413 h 6.04187 l 3.02093,5.232414 z M 113.36258,119.25951 h -6.04188 l -3.02093,-5.23241 3.02093,-5.23242 h 6.04188 l 3.02093,5.23242 z m 0,-11.58777 h -6.04188 l -3.02093,-5.2324 3.02093,-5.232426 h 6.04188 l 3.02093,5.232426 z m 0,-11.587747 h -6.04188 l -3.02093,-5.232418 3.02093,-5.232411 h 6.04188 l 3.02093,5.232411 z m 0,-11.587768 h -6.04188 l -3.02093,-5.232411 3.02093,-5.232421 h 6.04188 l 3.02093,5.232421 z m 0,-11.587771 h -6.04188 l -3.02093,-5.23242 3.02093,-5.232423 h 6.04188 l 3.02093,5.232423 z m 0,-11.587764 h -6.04188 l -3.02093,-5.232421 3.02093,-5.232407 h 6.04188 l 3.02093,5.232407 z m 0,-11.587758 h -6.04188 l -3.02093,-5.232407 3.02093,-5.232413 h 6.04188 l 3.02093,5.232413 z m 0,-11.587759 h -6.04188 l -3.02093,-5.232416 3.02093,-5.232413 h 6.04188 l 3.02093,5.232413 z m 0,-11.58777 h -6.04188 l -3.02093,-5.232414 3.02093,-5.232413 h 6.04188 l 3.02093,5.232414 z m 0,-11.58776 -6.04188,-10e-7 -3.02093,-5.2324146 3.02093,-5.232413 h 6.04188 l 3.02093,5.232414 z M 93.111335,119.25951 h -6.04187 l -3.020962,-5.23241 3.020962,-5.23242 h 6.04187 l 3.02094,5.23242 z m 0,-11.58777 h -6.04187 l -3.020962,-5.2324 3.020962,-5.232426 h 6.04187 l 3.02094,5.232426 z m 0,-11.587747 h -6.04187 l -3.020962,-5.232418 3.020962,-5.232411 h 6.04187 l 3.02094,5.232411 z m 0,-11.587768 h -6.04187 l -3.020962,-5.232411 3.020962,-5.232421 h 6.04187 l 3.02094,5.232421 z m 0,-11.587771 h -6.04187 l -3.020962,-5.23242 3.020962,-5.232423 h 6.04187 l 3.02094,5.232423 z m 0,-11.587764 h -6.04187 l -3.020962,-5.232421 3.020962,-5.232407 h 6.04187 l 3.02094,5.232407 z m 0,-11.587758 h -6.04187 l -3.020962,-5.232407 3.020962,-5.232413 h 6.04187 l 3.02094,5.232413 z m 0,-11.587759 h -6.04187 l -3.020962,-5.232416 3.020962,-5.232413 h 6.04187 l 3.02094,5.232413 z m 0,-11.58777 h -6.04187 l -3.020962,-5.232414 3.020962,-5.232413 h 6.04187 l 3.02094,5.232414 z m 0,-11.58776 -6.04187,-10e-7 -3.020962,-5.2324146 3.020962,-5.232413 h 6.04187 l 3.02094,5.232414 z M 72.860083,119.25951 h -6.041871 l -3.020936,-5.23241 3.020936,-5.23242 h 6.041871 l 3.020936,5.23242 z m 0,-11.58777 h -6.041871 l -3.020936,-5.2324 3.020936,-5.232426 h 6.041871 l 3.020936,5.232426 z m 0,-11.587747 h -6.041871 l -3.020936,-5.232418 3.020936,-5.232411 h 6.041871 l 3.020936,5.232411 z m 0,-11.587768 h -6.041871 l -3.020936,-5.232411 3.020936,-5.232421 h 6.041871 l 3.020936,5.232421 z m 0,-11.587771 h -6.041871 l -3.020936,-5.23242 3.020936,-5.232423 h 6.041871 l 3.020936,5.232423 z m 0,-11.587764 h -6.041871 l -3.020936,-5.232421 3.020936,-5.232407 h 6.041871 l 3.020936,5.232407 z m 0,-11.587758 h -6.041871 l -3.020936,-5.232407 3.020936,-5.232413 h 6.041871 l 3.020936,5.232413 z m 0,-11.587759 h -6.041871 l -3.020936,-5.232416 3.020936,-5.232413 h 6.041871 l 3.020936,5.232413 z m 0,-11.58777 h -6.041871 l -3.020936,-5.232414 3.020936,-5.232413 h 6.041871 l 3.020936,5.232414 z m 0,-11.58776 -6.041871,-10e-7 -3.020936,-5.2324146 3.020936,-5.232413 h 6.041871 l 3.020936,5.232414 z M 52.608838,119.25951 h -6.041869 l -3.020936,-5.23241 3.020936,-5.23242 h 6.041869 l 3.020938,5.23242 z m 0,-11.58777 h -6.041869 l -3.020936,-5.2324 3.020936,-5.232426 h 6.041869 l 3.020938,5.232426 z m 0,-11.587747 h -6.041869 l -3.020936,-5.232418 3.020936,-5.232411 h 6.041869 l 3.020938,5.232411 z m 0,-11.587768 h -6.041869 l -3.020936,-5.232411 3.020936,-5.232421 h 6.041869 l 3.020938,5.232421 z m 0,-11.587771 h -6.041869 l -3.020936,-5.23242 3.020936,-5.232423 h 6.041869 l 3.020938,5.232423 z m 0,-11.587764 h -6.041869 l -3.020936,-5.232421 3.020936,-5.232407 h 6.041869 l 3.020938,5.232407 z m 0,-11.587758 h -6.041869 l -3.020936,-5.232407 3.020936,-5.232413 h 6.041869 l 3.020938,5.232413 z m 0,-11.587759 h -6.041869 l -3.020936,-5.232416 3.020936,-5.232413 h 6.041869 l 3.020938,5.232413 z m 0,-11.58777 h -6.041869 l -3.020936,-5.232414 3.020936,-5.232413 h 6.041869 l 3.020938,5.232414 z m 0,-11.58776 -6.041869,-10e-7 -3.020936,-5.2324146 3.020936,-5.232413 h 6.041869 l 3.020938,5.232414 z M 32.35759,119.25951 h -6.04187 l -3.020935,-5.23241 3.020936,-5.23242 h 6.041871 l 3.020933,5.23242 z m 0,-11.58777 h -6.04187 l -3.020935,-5.2324 3.020936,-5.232426 h 6.041871 l 3.020933,5.232426 z m 0,-11.587747 h -6.04187 l -3.020935,-5.232418 3.020936,-5.232411 h 6.041871 l 3.020933,5.232411 z m 0,-11.587768 h -6.04187 l -3.020935,-5.232411 3.020936,-5.232421 h 6.041871 l 3.020933,5.232421 z m 0,-11.587771 h -6.04187 l -3.020935,-5.23242 3.020936,-5.232423 h 6.041871 l 3.020933,5.232423 z m 0,-11.587764 h -6.04187 l -3.020935,-5.232421 3.020936,-5.232407 h 6.041871 l 3.020933,5.232407 z m 0,-11.587758 h -6.04187 l -3.020935,-5.232407 3.020936,-5.232413 h 6.041871 l 3.020933,5.232413 z m 0,-11.587759 h -6.04187 l -3.020935,-5.232416 3.020936,-5.232413 h 6.041871 l 3.020933,5.232413 z m 0,-11.58777 h -6.04187 l -3.020935,-5.232414 3.020936,-5.232413 h 6.041871 l 3.020933,5.232414 z m 0,-11.58776 -6.04187,-10e-7 -3.020935,-5.2324146 3.020936,-5.232413 h 6.041871 l 3.020933,5.232414 z M 12.106343,119.25951 H 6.0644677 l -3.02093,-5.23241 3.02093,-5.23242 h 6.0418753 l 3.020937,5.23242 z m 0,-11.58777 H 6.0644677 l -3.02093,-5.2324 3.02093,-5.232426 h 6.0418753 l 3.020937,5.232426 z m 0,-11.587747 H 6.0644677 l -3.02093,-5.232418 3.02093,-5.232411 h 6.0418753 l 3.020937,5.232411 z m 0,-11.587768 H 6.0644677 l -3.02093,-5.232411 3.02093,-5.232421 h 6.0418753 l 3.020937,5.232421 z m 0,-11.587771 H 6.0644677 l -3.02093,-5.23242 3.02093,-5.232423 h 6.0418753 l 3.020937,5.232423 z m 0,-11.587764 H 6.0644677 l -3.02093,-5.232421 3.02093,-5.232407 h 6.0418753 l 3.020937,5.232407 z m 0,-11.587758 H 6.0644677 l -3.02093,-5.232407 3.02093,-5.232413 h 6.0418753 l 3.020937,5.232413 z m 0,-11.587759 H 6.0644677 l -3.02093,-5.232416 3.02093,-5.232413 h 6.0418753 l 3.020937,5.232413 z m 0,-11.58777 H 6.0644677 l -3.02093,-5.232414 3.02093,-5.232413 h 6.0418753 l 3.020937,5.232414 z m 0,-11.58776 -6.0418753,-10e-7 -3.02093,-5.2324146 3.02093,-5.232413 h 6.0418753 l 3.020937,5.232414 z m 0,0 -6.0418753,-10e-7 -3.02093,-5.2324146 3.02093,-5.232413 h 6.0418753 l 3.020937,5.232414 z M 204.31563,240.79773 h -6.04187 l -3.02094,-5.23241 3.02094,-5.23242 h 6.04187 l 3.02094,5.23242 z m 0,-11.58777 h -6.04187 l -3.02094,-5.23241 3.02094,-5.23242 h 6.04187 l 3.02094,5.23242 z m 0,-11.58775 h -6.04187 l -3.02094,-5.23242 3.02094,-5.23241 h 6.04187 l 3.02094,5.23241 z m 0,-11.58777 h -6.04187 l -3.02094,-5.23241 3.02094,-5.23242 h 6.04187 l 3.02094,5.23242 z m 0,-11.58777 h -6.04187 l -3.02094,-5.23241 3.02094,-5.23242 h 6.04187 l 3.02094,5.23242 z m 0,-11.58775 h -6.04187 l -3.02094,-5.23242 3.02094,-5.23241 h 6.04187 l 3.02094,5.23241 z m 0,-11.58776 h -6.04187 l -3.02094,-5.23242 3.02094,-5.23242 h 6.04187 l 3.02094,5.23242 z m 0,-11.58778 h -6.04187 l -3.02094,-5.23241 3.02094,-5.23242 h 6.04187 l 3.02094,5.23242 z m 0,-11.58777 h -6.04187 l -3.02094,-5.23241 3.02094,-5.23242 h 6.04187 l 3.02094,5.23242 z m 0,-11.58776 h -6.04187 l -3.02094,-5.23241 3.02094,-5.23242 h 6.04187 l 3.02094,5.23242 z m -20.25124,104.28988 h -6.04187 l -3.02093,-5.23241 3.02093,-5.23242 h 6.04187 l 3.02094,5.23242 z m 0,-11.58777 h -6.04187 l -3.02093,-5.23241 3.02093,-5.23242 h 6.04187 l 3.02094,5.23242 z m 0,-11.58775 h -6.04187 l -3.02093,-5.23242 3.02093,-5.23241 h 6.04187 l 3.02094,5.23241 z m 0,-11.58777 h -6.04187 l -3.02093,-5.23241 3.02093,-5.23242 h 6.04187 l 3.02094,5.23242 z m 0,-11.58777 h -6.04187 l -3.02093,-5.23241 3.02093,-5.23242 h 6.04187 l 3.02094,5.23242 z m 0,-11.58775 h -6.04187 l -3.02093,-5.23242 3.02093,-5.23241 h 6.04187 l 3.02094,5.23241 z m 0,-11.58776 h -6.04187 l -3.02093,-5.23242 3.02093,-5.23242 h 6.04187 l 3.02094,5.23242 z m 0,-11.58778 h -6.04187 l -3.02093,-5.23241 3.02093,-5.23242 h 6.04187 l 3.02094,5.23242 z m 0,-11.58777 h -6.04187 l -3.02093,-5.23241 3.02093,-5.23242 h 6.04187 l 3.02094,5.23242 z m 0,-11.58776 h -6.04187 l -3.02093,-5.23241 3.02093,-5.23242 h 6.04187 l 3.02094,5.23242 z m -20.25125,104.28988 h -6.04187 l -3.02093,-5.23241 3.02093,-5.23242 h 6.04187 l 3.02094,5.23242 z m 0,-11.58777 h -6.04187 l -3.02093,-5.23241 3.02093,-5.23242 h 6.04187 l 3.02094,5.23242 z m 0,-11.58775 h -6.04187 l -3.02093,-5.23242 3.02093,-5.23241 h 6.04187 l 3.02094,5.23241 z m 0,-11.58777 h -6.04187 l -3.02093,-5.23241 3.02093,-5.23242 h 6.04187 l 3.02094,5.23242 z m 0,-11.58777 h -6.04187 l -3.02093,-5.23241 3.02093,-5.23242 h 6.04187 l 3.02094,5.23242 z m 0,-11.58775 h -6.04187 l -3.02093,-5.23242 3.02093,-5.23241 h 6.04187 l 3.02094,5.23241 z m 0,-11.58776 h -6.04187 l -3.02093,-5.23242 3.02093,-5.23242 h 6.04187 l 3.02094,5.23242 z m 0,-11.58778 h -6.04187 l -3.02093,-5.23241 3.02093,-5.23242 h 6.04187 l 3.02094,5.23242 z m 0,-11.58777 h -6.04187 l -3.02093,-5.23241 3.02093,-5.23242 h 6.04187 l 3.02094,5.23242 z m 0,-11.58776 h -6.04187 l -3.02093,-5.23241 3.02093,-5.23242 h 6.04187 l 3.02094,5.23242 z m -20.25123,104.28988 h -6.04187 l -3.02094,-5.23241 3.02094,-5.23242 h 6.04187 l 3.02093,5.23242 z m 0,-11.58777 h -6.04187 l -3.02094,-5.23241 3.02094,-5.23242 h 6.04187 l 3.02093,5.23242 z m 0,-11.58775 h -6.04187 l -3.02094,-5.23242 3.02094,-5.23241 h 6.04187 l 3.02093,5.23241 z m 0,-11.58777 h -6.04187 l -3.02094,-5.23241 3.02094,-5.23242 h 6.04187 l 3.02093,5.23242 z m 0,-11.58777 h -6.04187 l -3.02094,-5.23241 3.02094,-5.23242 h 6.04187 l 3.02093,5.23242 z m 0,-11.58775 h -6.04187 l -3.02094,-5.23242 3.02094,-5.23241 h 6.04187 l 3.02093,5.23241 z m 0,-11.58776 h -6.04187 l -3.02094,-5.23242 3.02094,-5.23242 h 6.04187 l 3.02093,5.23242 z m 0,-11.58778 h -6.04187 l -3.02094,-5.23241 3.02094,-5.23242 h 6.04187 l 3.02093,5.23242 z m 0,-11.58777 h -6.04187 l -3.02094,-5.23241 3.02094,-5.23242 h 6.04187 l 3.02093,5.23242 z m 0,-11.58776 h -6.04187 l -3.02094,-5.23241 3.02094,-5.23242 h 6.04187 l 3.02093,5.23242 z m -20.25125,104.28988 h -6.04188 l -3.02093,-5.23241 3.02093,-5.23242 h 6.04188 l 3.02093,5.23242 z m 0,-11.58777 h -6.04188 l -3.02093,-5.23241 3.02093,-5.23242 h 6.04188 l 3.02093,5.23242 z m 0,-11.58775 h -6.04188 l -3.02093,-5.23242 3.02093,-5.23241 h 6.04188 l 3.02093,5.23241 z m 0,-11.58777 h -6.04188 l -3.02093,-5.23241 3.02093,-5.23242 h 6.04188 l 3.02093,5.23242 z m 0,-11.58777 h -6.04188 l -3.02093,-5.23241 3.02093,-5.23242 h 6.04188 l 3.02093,5.23242 z m 0,-11.58775 h -6.04188 l -3.02093,-5.23242 3.02093,-5.23241 h 6.04188 l 3.02093,5.23241 z m 0,-11.58776 h -6.04188 l -3.02093,-5.23242 3.02093,-5.23242 h 6.04188 l 3.02093,5.23242 z m 0,-11.58778 h -6.04188 l -3.02093,-5.23241 3.02093,-5.23242 h 6.04188 l 3.02093,5.23242 z m 0,-11.58777 h -6.04188 l -3.02093,-5.23241 3.02093,-5.23242 h 6.04188 l 3.02093,5.23242 z m 0,-11.58776 h -6.04188 l -3.02093,-5.23241 3.02093,-5.23242 h 6.04188 l 3.02093,5.23242 z m -20.25125,104.28988 h -6.041865 l -3.02093,-5.23241 3.02093,-5.23242 h 6.041865 l 3.02094,5.23242 z m 0,-11.58777 h -6.041865 l -3.02093,-5.23241 3.02093,-5.23242 h 6.041865 l 3.02094,5.23242 z m 0,-11.58775 h -6.041865 l -3.02093,-5.23242 3.02093,-5.23241 h 6.041865 l 3.02094,5.23241 z m 0,-11.58777 h -6.041865 l -3.02093,-5.23241 3.02093,-5.23242 h 6.041865 l 3.02094,5.23242 z m 0,-11.58777 h -6.041865 l -3.02093,-5.23241 3.02093,-5.23242 h 6.041865 l 3.02094,5.23242 z m 0,-11.58775 h -6.041865 l -3.02093,-5.23242 3.02093,-5.23241 h 6.041865 l 3.02094,5.23241 z m 0,-11.58776 h -6.041865 l -3.02093,-5.23242 3.02093,-5.23242 h 6.041865 l 3.02094,5.23242 z m 0,-11.58778 h -6.041865 l -3.02093,-5.23241 3.02093,-5.23242 h 6.041865 l 3.02094,5.23242 z m 0,-11.58777 h -6.041865 l -3.02093,-5.23241 3.02093,-5.23242 h 6.041865 l 3.02094,5.23242 z m 0,-11.58776 h -6.041865 l -3.02093,-5.23241 3.02093,-5.23242 h 6.041865 l 3.02094,5.23242 z M 82.808177,240.79773 h -6.041871 l -3.020935,-5.23241 3.020936,-5.23242 h 6.041871 l 3.020937,5.23242 z m 0,-11.58777 h -6.041871 l -3.020935,-5.23241 3.020936,-5.23242 h 6.041871 l 3.020937,5.23242 z m 0,-11.58775 h -6.041871 l -3.020935,-5.23242 3.020936,-5.23241 h 6.041871 l 3.020937,5.23241 z m 0,-11.58777 h -6.041871 l -3.020935,-5.23241 3.020936,-5.23242 h 6.041871 l 3.020937,5.23242 z m 0,-11.58777 h -6.041871 l -3.020935,-5.23241 3.020936,-5.23242 h 6.041871 l 3.020937,5.23242 z m 0,-11.58775 h -6.041871 l -3.020935,-5.23242 3.020936,-5.23241 h 6.041871 l 3.020937,5.23241 z m 0,-11.58776 h -6.041871 l -3.020935,-5.23242 3.020936,-5.23242 h 6.041871 l 3.020937,5.23242 z m 0,-11.58778 h -6.041871 l -3.020935,-5.23241 3.020936,-5.23242 h 6.041871 l 3.020937,5.23242 z m 0,-11.58777 h -6.041871 l -3.020935,-5.23241 3.020936,-5.23242 h 6.041871 l 3.020937,5.23242 z m 0,-11.58776 h -6.041871 l -3.020935,-5.23241 3.020936,-5.23242 h 6.041871 l 3.020937,5.23242 z M 62.556934,240.79773 h -6.041871 l -3.020936,-5.23241 3.020936,-5.23242 h 6.041871 l 3.020936,5.23242 z m 0,-11.58777 h -6.041871 l -3.020936,-5.23241 3.020936,-5.23242 h 6.041871 l 3.020936,5.23242 z m 0,-11.58775 h -6.041871 l -3.020936,-5.23242 3.020936,-5.23241 h 6.041871 l 3.020936,5.23241 z m 0,-11.58777 h -6.041871 l -3.020936,-5.23241 3.020936,-5.23242 h 6.041871 l 3.020936,5.23242 z m 0,-11.58777 h -6.041871 l -3.020936,-5.23241 3.020936,-5.23242 h 6.041871 l 3.020936,5.23242 z m 0,-11.58775 h -6.041871 l -3.020936,-5.23242 3.020936,-5.23241 h 6.041871 l 3.020936,5.23241 z m 0,-11.58776 h -6.041871 l -3.020936,-5.23242 3.020936,-5.23242 h 6.041871 l 3.020936,5.23242 z m 0,-11.58778 h -6.041871 l -3.020936,-5.23241 3.020936,-5.23242 h 6.041871 l 3.020936,5.23242 z m 0,-11.58777 h -6.041871 l -3.020936,-5.23241 3.020936,-5.23242 h 6.041871 l 3.020936,5.23242 z m 0,-11.58776 h -6.041871 l -3.020936,-5.23241 3.020936,-5.23242 h 6.041871 l 3.020936,5.23242 z M 42.305686,240.79773 h -6.041871 l -3.020935,-5.23241 3.020936,-5.23242 h 6.041871 l 3.020935,5.23242 z m 0,-11.58777 h -6.041871 l -3.020935,-5.23241 3.020936,-5.23242 h 6.041871 l 3.020935,5.23242 z m 0,-11.58775 h -6.041871 l -3.020935,-5.23242 3.020936,-5.23241 h 6.041871 l 3.020935,5.23241 z m 0,-11.58777 h -6.041871 l -3.020935,-5.23241 3.020936,-5.23242 h 6.041871 l 3.020935,5.23242 z m 0,-11.58777 h -6.041871 l -3.020935,-5.23241 3.020936,-5.23242 h 6.041871 l 3.020935,5.23242 z m 0,-11.58775 h -6.041871 l -3.020935,-5.23242 3.020936,-5.23241 h 6.041871 l 3.020935,5.23241 z m 0,-11.58776 h -6.041871 l -3.020935,-5.23242 3.020936,-5.23242 h 6.041871 l 3.020935,5.23242 z m 0,-11.58778 h -6.041871 l -3.020935,-5.23241 3.020936,-5.23242 h 6.041871 l 3.020935,5.23242 z m 0,-11.58777 h -6.041871 l -3.020935,-5.23241 3.020936,-5.23242 h 6.041871 l 3.020935,5.23242 z m 0,-11.58776 h -6.041871 l -3.020935,-5.23241 3.020936,-5.23242 h 6.041871 l 3.020935,5.23242 z M 22.054439,240.79773 h -6.041871 l -3.020935,-5.23241 3.020935,-5.23242 h 6.041871 l 3.020936,5.23242 z m 0,-11.58777 h -6.041871 l -3.020935,-5.23241 3.020935,-5.23242 h 6.041871 l 3.020936,5.23242 z m 0,-11.58775 h -6.041871 l -3.020935,-5.23242 3.020935,-5.23241 h 6.041871 l 3.020936,5.23241 z m 0,-11.58777 h -6.041871 l -3.020935,-5.23241 3.020935,-5.23242 h 6.041871 l 3.020936,5.23242 z m 0,-11.58777 h -6.041871 l -3.020935,-5.23241 3.020935,-5.23242 h 6.041871 l 3.020936,5.23242 z m 0,-11.58775 h -6.041871 l -3.020935,-5.23242 3.020935,-5.23241 h 6.041871 l 3.020936,5.23241 z m 0,-11.58776 h -6.041871 l -3.020935,-5.23242 3.020935,-5.23242 h 6.041871 l 3.020936,5.23242 z m 0,-11.58778 h -6.041871 l -3.020935,-5.23241 3.020935,-5.23242 h 6.041871 l 3.020936,5.23242 z m 0,-11.58777 h -6.041871 l -3.020935,-5.23241 3.020935,-5.23242 h 6.041871 l 3.020936,5.23242 z m 0,-11.58776 h -6.041871 l -3.020935,-5.23241 3.020935,-5.23242 h 6.041871 l 3.020936,5.23242 z m 0,0 h -6.041871 l -3.020935,-5.23241 3.020935,-5.23242 h 6.041871 l 3.020936,5.23242 z m 172.232911,98.48822 h -6.04187 l -3.02094,-5.23241 3.02094,-5.23242 h 6.04187 l 3.02094,5.23242 z m 0,-11.58777 h -6.04187 l -3.02094,-5.23241 3.02094,-5.23242 h 6.04187 l 3.02094,5.23242 z m 0,-11.58775 h -6.04187 l -3.02094,-5.23242 3.02094,-5.23241 h 6.04187 l 3.02094,5.23241 z m 0,-11.58777 h -6.04187 l -3.02094,-5.23241 3.02094,-5.23242 h 6.04187 l 3.02094,5.23242 z m 0,-11.58777 h -6.04187 l -3.02094,-5.23241 3.02094,-5.23242 h 6.04187 l 3.02094,5.23242 z m 0,-11.58775 h -6.04187 l -3.02094,-5.23242 3.02094,-5.23241 h 6.04187 l 3.02094,5.23241 z m 0,-11.58776 h -6.04187 l -3.02094,-5.23242 3.02094,-5.23241 h 6.04187 l 3.02094,5.23241 z m 0,-11.58778 h -6.04187 l -3.02094,-5.23241 3.02094,-5.23241 h 6.04187 l 3.02094,5.23241 z m 0,-11.58776 h -6.04187 l -3.02094,-5.23242 3.02094,-5.23241 h 6.04187 l 3.02094,5.23241 z m 0,-11.58776 -6.04187,-1e-5 -3.02094,-5.23241 3.02094,-5.23241 h 6.04187 l 3.02094,5.23241 z m -20.25124,104.28987 h -6.04187 l -3.02093,-5.23241 3.02093,-5.23242 h 6.04187 l 3.02094,5.23242 z m 0,-11.58777 h -6.04187 l -3.02093,-5.23241 3.02093,-5.23242 h 6.04187 l 3.02094,5.23242 z m 0,-11.58775 h -6.04187 l -3.02093,-5.23242 3.02093,-5.23241 h 6.04187 l 3.02094,5.23241 z m 0,-11.58777 h -6.04187 l -3.02093,-5.23241 3.02093,-5.23242 h 6.04187 l 3.02094,5.23242 z m 0,-11.58777 h -6.04187 l -3.02093,-5.23241 3.02093,-5.23242 h 6.04187 l 3.02094,5.23242 z m 0,-11.58775 h -6.04187 l -3.02093,-5.23242 3.02093,-5.23241 h 6.04187 l 3.02094,5.23241 z m 0,-11.58776 h -6.04187 l -3.02093,-5.23242 3.02093,-5.23241 h 6.04187 l 3.02094,5.23241 z m 0,-11.58778 h -6.04187 l -3.02093,-5.23241 3.02093,-5.23241 h 6.04187 l 3.02094,5.23241 z m 0,-11.58776 h -6.04187 l -3.02093,-5.23242 3.02093,-5.23241 h 6.04187 l 3.02094,5.23241 z m 0,-11.58776 -6.04187,-1e-5 -3.02093,-5.23241 3.02093,-5.23241 h 6.04187 l 3.02094,5.23241 z m -20.25125,104.28987 h -6.04187 l -3.02093,-5.23241 3.02093,-5.23242 h 6.04187 l 3.02094,5.23242 z m 0,-11.58777 h -6.04187 l -3.02093,-5.23241 3.02093,-5.23242 h 6.04187 l 3.02094,5.23242 z m 0,-11.58775 h -6.04187 l -3.02093,-5.23242 3.02093,-5.23241 h 6.04187 l 3.02094,5.23241 z m 0,-11.58777 h -6.04187 l -3.02093,-5.23241 3.02093,-5.23242 h 6.04187 l 3.02094,5.23242 z m 0,-11.58777 h -6.04187 l -3.02093,-5.23241 3.02093,-5.23242 h 6.04187 l 3.02094,5.23242 z m 0,-11.58775 h -6.04187 l -3.02093,-5.23242 3.02093,-5.23241 h 6.04187 l 3.02094,5.23241 z m 0,-11.58776 h -6.04187 l -3.02093,-5.23242 3.02093,-5.23241 h 6.04187 l 3.02094,5.23241 z m 0,-11.58778 h -6.04187 l -3.02093,-5.23241 3.02093,-5.23241 h 6.04187 l 3.02094,5.23241 z m 0,-11.58776 h -6.04187 l -3.02093,-5.23242 3.02093,-5.23241 h 6.04187 l 3.02094,5.23241 z m 0,-11.58776 -6.04187,-1e-5 -3.02093,-5.23241 3.02093,-5.23241 h 6.04187 l 3.02094,5.23241 z m -20.25123,104.28987 h -6.04187 l -3.02094,-5.23241 3.02094,-5.23242 h 6.04187 l 3.02093,5.23242 z m 0,-11.58777 h -6.04187 l -3.02094,-5.23241 3.02094,-5.23242 h 6.04187 l 3.02093,5.23242 z m 0,-11.58775 h -6.04187 l -3.02094,-5.23242 3.02094,-5.23241 h 6.04187 l 3.02093,5.23241 z m 0,-11.58777 h -6.04187 l -3.02094,-5.23241 3.02094,-5.23242 h 6.04187 l 3.02093,5.23242 z m 0,-11.58777 h -6.04187 l -3.02094,-5.23241 3.02094,-5.23242 h 6.04187 l 3.02093,5.23242 z m 0,-11.58775 h -6.04187 l -3.02094,-5.23242 3.02094,-5.23241 h 6.04187 l 3.02093,5.23241 z m 0,-11.58776 h -6.04187 l -3.02094,-5.23242 3.02094,-5.23241 h 6.04187 l 3.02093,5.23241 z m 0,-11.58778 h -6.04187 l -3.02094,-5.23241 3.02094,-5.23241 h 6.04187 l 3.02093,5.23241 z m 0,-11.58776 h -6.04187 l -3.02094,-5.23242 3.02094,-5.23241 h 6.04187 l 3.02093,5.23241 z m 0,-11.58776 -6.04187,-1e-5 -3.02094,-5.23241 3.02094,-5.23241 h 6.04187 l 3.02093,5.23241 z m -20.25125,104.28987 h -6.04188 l -3.02093,-5.23241 3.02093,-5.23242 h 6.04188 l 3.02093,5.23242 z m 0,-11.58777 h -6.04188 l -3.02093,-5.23241 3.02093,-5.23242 h 6.04188 l 3.02093,5.23242 z m 0,-11.58775 h -6.04188 l -3.02093,-5.23242 3.02093,-5.23241 h 6.04188 l 3.02093,5.23241 z m 0,-11.58777 h -6.04188 l -3.02093,-5.23241 3.02093,-5.23242 h 6.04188 l 3.02093,5.23242 z m 0,-11.58777 h -6.04188 l -3.02093,-5.23241 3.02093,-5.23242 h 6.04188 l 3.02093,5.23242 z m 0,-11.58775 h -6.04188 l -3.02093,-5.23242 3.02093,-5.23241 h 6.04188 l 3.02093,5.23241 z m 0,-11.58776 h -6.04188 l -3.02093,-5.23242 3.02093,-5.23241 h 6.04188 l 3.02093,5.23241 z m 0,-11.58778 h -6.04188 l -3.02093,-5.23241 3.02093,-5.23241 h 6.04188 l 3.02093,5.23241 z m 0,-11.58776 h -6.04188 l -3.02093,-5.23242 3.02093,-5.23241 h 6.04188 l 3.02093,5.23241 z m 0,-11.58776 -6.04188,-1e-5 -3.02093,-5.23241 3.02093,-5.23241 h 6.04188 l 3.02093,5.23241 z M 93.031135,234.99607 h -6.04187 l -3.020934,-5.23241 3.020934,-5.23242 h 6.04187 l 3.02094,5.23242 z m 0,-11.58777 h -6.04187 l -3.020934,-5.23241 3.020934,-5.23242 h 6.04187 l 3.02094,5.23242 z m 0,-11.58775 h -6.04187 l -3.020934,-5.23242 3.020934,-5.23241 h 6.04187 l 3.02094,5.23241 z m 0,-11.58777 h -6.04187 l -3.020934,-5.23241 3.020934,-5.23242 h 6.04187 l 3.02094,5.23242 z m 0,-11.58777 h -6.04187 l -3.020934,-5.23241 3.020934,-5.23242 h 6.04187 l 3.02094,5.23242 z m 0,-11.58775 h -6.04187 l -3.020934,-5.23242 3.020934,-5.23241 h 6.04187 l 3.02094,5.23241 z m 0,-11.58776 h -6.04187 l -3.020934,-5.23242 3.020934,-5.23241 h 6.04187 l 3.02094,5.23241 z m 0,-11.58778 h -6.04187 l -3.020934,-5.23241 3.020934,-5.23241 h 6.04187 l 3.02094,5.23241 z m 0,-11.58776 h -6.04187 l -3.020934,-5.23242 3.020934,-5.23241 h 6.04187 l 3.02094,5.23241 z m 0,-11.58776 -6.04187,-1e-5 -3.020934,-5.23241 3.020934,-5.23241 h 6.04187 l 3.02094,5.23241 z M 72.779893,234.99607 h -6.041871 l -3.020935,-5.23241 3.020936,-5.23242 h 6.041871 l 3.020935,5.23242 z m 0,-11.58777 h -6.041871 l -3.020935,-5.23241 3.020936,-5.23242 h 6.041871 l 3.020935,5.23242 z m 0,-11.58775 h -6.041871 l -3.020935,-5.23242 3.020936,-5.23241 h 6.041871 l 3.020935,5.23241 z m 0,-11.58777 h -6.041871 l -3.020935,-5.23241 3.020936,-5.23242 h 6.041871 l 3.020935,5.23242 z m 0,-11.58777 h -6.041871 l -3.020935,-5.23241 3.020936,-5.23242 h 6.041871 l 3.020935,5.23242 z m 0,-11.58775 h -6.041871 l -3.020935,-5.23242 3.020936,-5.23241 h 6.041871 l 3.020935,5.23241 z m 0,-11.58776 h -6.041871 l -3.020935,-5.23242 3.020936,-5.23241 h 6.041871 l 3.020935,5.23241 z m 0,-11.58778 h -6.041871 l -3.020935,-5.23241 3.020936,-5.23241 h 6.041871 l 3.020935,5.23241 z m 0,-11.58776 h -6.041871 l -3.020935,-5.23242 3.020936,-5.23241 h 6.041871 l 3.020935,5.23241 z m 0,-11.58776 -6.041871,-1e-5 -3.020935,-5.23241 3.020936,-5.23241 h 6.041871 l 3.020935,5.23241 z M 52.52865,234.99607 h -6.041871 l -3.020936,-5.23241 3.020936,-5.23242 h 6.041871 l 3.020936,5.23242 z m 0,-11.58777 h -6.041871 l -3.020936,-5.23241 3.020936,-5.23242 h 6.041871 l 3.020936,5.23242 z m 0,-11.58775 h -6.041871 l -3.020936,-5.23242 3.020936,-5.23241 h 6.041871 l 3.020936,5.23241 z m 0,-11.58777 h -6.041871 l -3.020936,-5.23241 3.020936,-5.23242 h 6.041871 l 3.020936,5.23242 z m 0,-11.58777 h -6.041871 l -3.020936,-5.23241 3.020936,-5.23242 h 6.041871 l 3.020936,5.23242 z m 0,-11.58775 h -6.041871 l -3.020936,-5.23242 3.020936,-5.23241 h 6.041871 l 3.020936,5.23241 z m 0,-11.58776 h -6.041871 l -3.020936,-5.23242 3.020936,-5.23241 h 6.041871 l 3.020936,5.23241 z m 0,-11.58778 h -6.041871 l -3.020936,-5.23241 3.020936,-5.23241 h 6.041871 l 3.020936,5.23241 z m 0,-11.58776 h -6.041871 l -3.020936,-5.23242 3.020936,-5.23241 h 6.041871 l 3.020936,5.23241 z m 0,-11.58776 -6.041871,-1e-5 -3.020936,-5.23241 3.020936,-5.23241 h 6.041871 l 3.020936,5.23241 z M 32.277402,234.99607 h -6.041871 l -3.020935,-5.23241 3.020936,-5.23242 h 6.041871 l 3.020935,5.23242 z m 0,-11.58777 h -6.041871 l -3.020935,-5.23241 3.020936,-5.23242 h 6.041871 l 3.020935,5.23242 z m 0,-11.58775 h -6.041871 l -3.020935,-5.23242 3.020936,-5.23241 h 6.041871 l 3.020935,5.23241 z m 0,-11.58777 h -6.041871 l -3.020935,-5.23241 3.020936,-5.23242 h 6.041871 l 3.020935,5.23242 z m 0,-11.58777 h -6.041871 l -3.020935,-5.23241 3.020936,-5.23242 h 6.041871 l 3.020935,5.23242 z m 0,-11.58775 h -6.041871 l -3.020935,-5.23242 3.020936,-5.23241 h 6.041871 l 3.020935,5.23241 z m 0,-11.58776 h -6.041871 l -3.020935,-5.23242 3.020936,-5.23241 h 6.041871 l 3.020935,5.23241 z m 0,-11.58778 h -6.041871 l -3.020935,-5.23241 3.020936,-5.23241 h 6.041871 l 3.020935,5.23241 z m 0,-11.58776 h -6.041871 l -3.020935,-5.23242 3.020936,-5.23241 h 6.041871 l 3.020935,5.23241 z m 0,-11.58776 -6.041871,-1e-5 -3.020935,-5.23241 3.020936,-5.23241 h 6.041871 l 3.020935,5.23241 z M 12.026155,234.99607 H 5.9842837 l -3.020935,-5.23241 3.020935,-5.23242 h 6.0418713 l 3.020936,5.23242 z m 0,-11.58777 H 5.9842837 l -3.020935,-5.23241 3.020935,-5.23242 h 6.0418713 l 3.020936,5.23242 z m 0,-11.58775 H 5.9842837 l -3.020935,-5.23242 3.020935,-5.23241 h 6.0418713 l 3.020936,5.23241 z m 0,-11.58777 H 5.9842837 l -3.020935,-5.23241 3.020935,-5.23242 h 6.0418713 l 3.020936,5.23242 z m 0,-11.58777 H 5.9842837 l -3.020935,-5.23241 3.020935,-5.23242 h 6.0418713 l 3.020936,5.23242 z m 0,-11.58775 H 5.9842837 l -3.020935,-5.23242 3.020935,-5.23241 h 6.0418713 l 3.020936,5.23241 z m 0,-11.58776 H 5.9842837 l -3.020935,-5.23242 3.020935,-5.23241 h 6.0418713 l 3.020936,5.23241 z m 0,-11.58778 H 5.9842837 l -3.020935,-5.23241 3.020935,-5.23241 h 6.0418713 l 3.020936,5.23241 z m 0,-11.58776 H 5.9842837 l -3.020935,-5.23242 3.020935,-5.23241 h 6.0418713 l 3.020936,5.23241 z m 0,-11.58776 -6.0418713,-1e-5 -3.020935,-5.23241 3.020935,-5.23241 h 6.0418713 l 3.020936,5.23241 z m 0,0 -6.0418713,-1e-5 -3.020935,-5.23241 3.020935,-5.23241 h 6.0418713 l 3.020936,5.23241 z"
       clip-path="url(#clipPath7908)" />
  </g>
  <g
     inkscape:groupmode="layer"
     id="layer2"
     inkscape:label="Layer 2"
     style="display:none"
     sodipodi:insensitive="true">
    <ellipse
       style="fill:#000000;fill-opacity:1;stroke:url(#linearGradient9510);stroke-width:2.64583;stroke-linecap:round;stroke-linejoin:round;stroke-miterlimit:4;stroke-dasharray:none;stroke-opacity:1"
       id="path9470"
       cx="105.79756"
       cy="109.32416"
       rx="86.241043"
       ry="86.882248" />
    <ellipse
       style="fill:#000000;fill-opacity:1;stroke:url(#linearGradient9530);stroke-width:2.57802;stroke-linecap:round;stroke-linejoin:round;stroke-miterlimit:4;stroke-dasharray:none;stroke-opacity:1"
       id="ellipse9518"
       cx="105.79756"
       cy="109.32416"
       rx="84.030762"
       ry="84.655533" />
  </g>
  <g
     inkscape:groupmode="layer"
     id="layer3"
     inkscape:label="pattern">
    <circle
       style="fill:none;fill-opacity:1;stroke:url(#linearGradient9576);stroke-width:0.057836;stroke-linecap:round;stroke-linejoin:round;stroke-miterlimit:4;stroke-dasharray:none;stroke-opacity:1"
       id="path9568"
       cx="109.96535"
       cy="106.43876"
       r="0.69394004" />
    <circle
       style="fill:none;fill-opacity:1;stroke:url(#linearGradient9580);stroke-width:0.0661458;stroke-linecap:round;stroke-linejoin:round;stroke-miterlimit:4;stroke-dasharray:none;stroke-opacity:1"
       id="circle9578"
       cx="109.96535"
       cy="106.43876"
       r="0.64804065" />
  </g>
</svg>
